<mxfile host="app.diagrams.net" modified="2024-06-02T04:16:34.834Z" agent="Mozilla/5.0 (Windows NT 10.0; Win64; x64) AppleWebKit/537.36 (KHTML, like Gecko) Chrome/125.0.0.0 Safari/537.36" etag="ZUxhu08OtcL3E2oSX_4v" version="24.4.13" type="github" pages="3">
  <diagram name="Page-1" id="pkMcTUoPThLEwvBGbGpj">
    <mxGraphModel dx="1189" dy="626" grid="1" gridSize="10" guides="1" tooltips="1" connect="1" arrows="1" fold="1" page="1" pageScale="1" pageWidth="1169" pageHeight="827" math="0" shadow="0">
      <root>
        <mxCell id="0" />
        <mxCell id="1" parent="0" />
        <mxCell id="9CuErqTDi-yg6n9Q_Q30-3" value="VPC" style="sketch=0;outlineConnect=0;gradientColor=none;html=1;whiteSpace=wrap;fontSize=12;fontStyle=0;shape=mxgraph.aws4.group;grIcon=mxgraph.aws4.group_vpc;strokeColor=#B6BABF;fillColor=none;verticalAlign=top;align=left;spacingLeft=30;fontColor=#B6BABF;dashed=0;" parent="1" vertex="1">
          <mxGeometry x="230" y="194" width="920" height="417" as="geometry" />
        </mxCell>
        <mxCell id="RIxT3eAGtSI2uLzwE59G-4" value="AWS Cloud" style="sketch=0;outlineConnect=0;gradientColor=none;html=1;whiteSpace=wrap;fontSize=12;fontStyle=0;shape=mxgraph.aws4.group;grIcon=mxgraph.aws4.group_aws_cloud;strokeColor=#AAB7B8;fillColor=none;verticalAlign=top;align=left;spacingLeft=30;fontColor=#AAB7B8;dashed=0;" parent="1" vertex="1">
          <mxGeometry x="200" y="170" width="960" height="440" as="geometry" />
        </mxCell>
        <mxCell id="RIxT3eAGtSI2uLzwE59G-5" value="" style="sketch=0;outlineConnect=0;fontColor=#232F3E;gradientColor=none;fillColor=#232F3D;strokeColor=none;dashed=0;verticalLabelPosition=bottom;verticalAlign=top;align=center;html=1;fontSize=12;fontStyle=0;aspect=fixed;pointerEvents=1;shape=mxgraph.aws4.authenticated_user;" parent="1" vertex="1">
          <mxGeometry x="90" y="379" width="70" height="70" as="geometry" />
        </mxCell>
        <mxCell id="RIxT3eAGtSI2uLzwE59G-7" value="" style="sketch=0;points=[[0,0,0],[0.25,0,0],[0.5,0,0],[0.75,0,0],[1,0,0],[0,1,0],[0.25,1,0],[0.5,1,0],[0.75,1,0],[1,1,0],[0,0.25,0],[0,0.5,0],[0,0.75,0],[1,0.25,0],[1,0.5,0],[1,0.75,0]];outlineConnect=0;fontColor=#232F3E;fillColor=#DD344C;strokeColor=#ffffff;dashed=0;verticalLabelPosition=bottom;verticalAlign=top;align=center;html=1;fontSize=12;fontStyle=0;aspect=fixed;shape=mxgraph.aws4.resourceIcon;resIcon=mxgraph.aws4.mobile;" parent="1" vertex="1">
          <mxGeometry y="336" width="78" height="78" as="geometry" />
        </mxCell>
        <mxCell id="RIxT3eAGtSI2uLzwE59G-14" value="" style="edgeStyle=orthogonalEdgeStyle;rounded=0;orthogonalLoop=1;jettySize=auto;html=1;" parent="1" source="RIxT3eAGtSI2uLzwE59G-5" target="RIxT3eAGtSI2uLzwE59G-8" edge="1">
          <mxGeometry relative="1" as="geometry" />
        </mxCell>
        <mxCell id="RIxT3eAGtSI2uLzwE59G-8" value="" style="sketch=0;points=[[0,0,0],[0.25,0,0],[0.5,0,0],[0.75,0,0],[1,0,0],[0,1,0],[0.25,1,0],[0.5,1,0],[0.75,1,0],[1,1,0],[0,0.25,0],[0,0.5,0],[0,0.75,0],[1,0.25,0],[1,0.5,0],[1,0.75,0]];outlineConnect=0;fontColor=#232F3E;fillColor=#8C4FFF;strokeColor=#ffffff;dashed=0;verticalLabelPosition=bottom;verticalAlign=top;align=center;html=1;fontSize=12;fontStyle=0;aspect=fixed;shape=mxgraph.aws4.resourceIcon;resIcon=mxgraph.aws4.route_53;" parent="1" vertex="1">
          <mxGeometry x="240" y="375" width="78" height="78" as="geometry" />
        </mxCell>
        <mxCell id="RIxT3eAGtSI2uLzwE59G-18" value="" style="edgeStyle=orthogonalEdgeStyle;rounded=0;orthogonalLoop=1;jettySize=auto;html=1;" parent="1" source="RIxT3eAGtSI2uLzwE59G-9" target="RIxT3eAGtSI2uLzwE59G-8" edge="1">
          <mxGeometry relative="1" as="geometry" />
        </mxCell>
        <mxCell id="RIxT3eAGtSI2uLzwE59G-9" value="" style="sketch=0;points=[[0,0,0],[0.25,0,0],[0.5,0,0],[0.75,0,0],[1,0,0],[0,1,0],[0.25,1,0],[0.5,1,0],[0.75,1,0],[1,1,0],[0,0.25,0],[0,0.5,0],[0,0.75,0],[1,0.25,0],[1,0.5,0],[1,0.75,0]];outlineConnect=0;fontColor=#232F3E;fillColor=#8C4FFF;strokeColor=#ffffff;dashed=0;verticalLabelPosition=bottom;verticalAlign=top;align=center;html=1;fontSize=12;fontStyle=0;aspect=fixed;shape=mxgraph.aws4.resourceIcon;resIcon=mxgraph.aws4.cloudfront;" parent="1" vertex="1">
          <mxGeometry x="240" y="258" width="78" height="78" as="geometry" />
        </mxCell>
        <mxCell id="RIxT3eAGtSI2uLzwE59G-12" value="" style="edgeStyle=orthogonalEdgeStyle;rounded=0;orthogonalLoop=1;jettySize=auto;html=1;" parent="1" source="RIxT3eAGtSI2uLzwE59G-10" target="RIxT3eAGtSI2uLzwE59G-5" edge="1">
          <mxGeometry relative="1" as="geometry">
            <mxPoint x="291" y="209" as="targetPoint" />
          </mxGeometry>
        </mxCell>
        <mxCell id="RIxT3eAGtSI2uLzwE59G-10" value="" style="sketch=0;points=[[0,0,0],[0.25,0,0],[0.5,0,0],[0.75,0,0],[1,0,0],[0,1,0],[0.25,1,0],[0.5,1,0],[0.75,1,0],[1,1,0],[0,0.25,0],[0,0.5,0],[0,0.75,0],[1,0.25,0],[1,0.5,0],[1,0.75,0]];outlineConnect=0;fontColor=#232F3E;fillColor=#DD344C;strokeColor=#ffffff;dashed=0;verticalLabelPosition=bottom;verticalAlign=top;align=center;html=1;fontSize=12;fontStyle=0;aspect=fixed;shape=mxgraph.aws4.resourceIcon;resIcon=mxgraph.aws4.cognito;" parent="1" vertex="1">
          <mxGeometry x="470" y="250" width="78" height="78" as="geometry" />
        </mxCell>
        <mxCell id="RIxT3eAGtSI2uLzwE59G-13" value="" style="verticalLabelPosition=bottom;html=1;verticalAlign=top;align=center;strokeColor=none;fillColor=#00BEF2;shape=mxgraph.azure.computer;pointerEvents=1;" parent="1" vertex="1">
          <mxGeometry x="14" y="430" width="50" height="45" as="geometry" />
        </mxCell>
        <mxCell id="RIxT3eAGtSI2uLzwE59G-16" value="" style="edgeStyle=orthogonalEdgeStyle;rounded=0;orthogonalLoop=1;jettySize=auto;html=1;" parent="1" source="RIxT3eAGtSI2uLzwE59G-9" target="RIxT3eAGtSI2uLzwE59G-15" edge="1">
          <mxGeometry relative="1" as="geometry" />
        </mxCell>
        <mxCell id="RIxT3eAGtSI2uLzwE59G-15" value="" style="sketch=0;points=[[0,0,0],[0.25,0,0],[0.5,0,0],[0.75,0,0],[1,0,0],[0,1,0],[0.25,1,0],[0.5,1,0],[0.75,1,0],[1,1,0],[0,0.25,0],[0,0.5,0],[0,0.75,0],[1,0.25,0],[1,0.5,0],[1,0.75,0]];outlineConnect=0;fontColor=#232F3E;fillColor=#7AA116;strokeColor=#ffffff;dashed=0;verticalLabelPosition=bottom;verticalAlign=top;align=center;html=1;fontSize=12;fontStyle=0;aspect=fixed;shape=mxgraph.aws4.resourceIcon;resIcon=mxgraph.aws4.s3;" parent="1" vertex="1">
          <mxGeometry x="360" y="258" width="78" height="78" as="geometry" />
        </mxCell>
        <mxCell id="RIxT3eAGtSI2uLzwE59G-19" value="" style="edgeStyle=orthogonalEdgeStyle;rounded=0;orthogonalLoop=1;jettySize=auto;html=1;" parent="1" source="RIxT3eAGtSI2uLzwE59G-17" target="RIxT3eAGtSI2uLzwE59G-8" edge="1">
          <mxGeometry relative="1" as="geometry" />
        </mxCell>
        <mxCell id="RIxT3eAGtSI2uLzwE59G-17" value="" style="sketch=0;points=[[0,0,0],[0.25,0,0],[0.5,0,0],[0.75,0,0],[1,0,0],[0,1,0],[0.25,1,0],[0.5,1,0],[0.75,1,0],[1,1,0],[0,0.25,0],[0,0.5,0],[0,0.75,0],[1,0.25,0],[1,0.5,0],[1,0.75,0]];outlineConnect=0;fontColor=#232F3E;fillColor=#E7157B;strokeColor=#ffffff;dashed=0;verticalLabelPosition=bottom;verticalAlign=top;align=center;html=1;fontSize=12;fontStyle=0;aspect=fixed;shape=mxgraph.aws4.resourceIcon;resIcon=mxgraph.aws4.api_gateway;" parent="1" vertex="1">
          <mxGeometry x="350" y="375" width="78" height="78" as="geometry" />
        </mxCell>
        <mxCell id="RIxT3eAGtSI2uLzwE59G-21" value="" style="edgeStyle=orthogonalEdgeStyle;rounded=0;orthogonalLoop=1;jettySize=auto;html=1;" parent="1" source="RIxT3eAGtSI2uLzwE59G-20" target="RIxT3eAGtSI2uLzwE59G-17" edge="1">
          <mxGeometry relative="1" as="geometry" />
        </mxCell>
        <mxCell id="RIxT3eAGtSI2uLzwE59G-23" value="" style="edgeStyle=orthogonalEdgeStyle;rounded=0;orthogonalLoop=1;jettySize=auto;html=1;" parent="1" source="RIxT3eAGtSI2uLzwE59G-20" target="RIxT3eAGtSI2uLzwE59G-22" edge="1">
          <mxGeometry relative="1" as="geometry" />
        </mxCell>
        <mxCell id="RIxT3eAGtSI2uLzwE59G-20" value="" style="sketch=0;points=[[0,0,0],[0.25,0,0],[0.5,0,0],[0.75,0,0],[1,0,0],[0,1,0],[0.25,1,0],[0.5,1,0],[0.75,1,0],[1,1,0],[0,0.25,0],[0,0.5,0],[0,0.75,0],[1,0.25,0],[1,0.5,0],[1,0.75,0]];outlineConnect=0;fontColor=#232F3E;fillColor=#E7157B;strokeColor=#ffffff;dashed=0;verticalLabelPosition=bottom;verticalAlign=top;align=center;html=1;fontSize=12;fontStyle=0;aspect=fixed;shape=mxgraph.aws4.resourceIcon;resIcon=mxgraph.aws4.sqs;" parent="1" vertex="1">
          <mxGeometry x="543" y="375" width="78" height="78" as="geometry" />
        </mxCell>
        <mxCell id="RIxT3eAGtSI2uLzwE59G-29" value="" style="edgeStyle=orthogonalEdgeStyle;rounded=0;orthogonalLoop=1;jettySize=auto;html=1;" parent="1" edge="1">
          <mxGeometry relative="1" as="geometry">
            <mxPoint x="761" y="250" as="targetPoint" />
            <Array as="points">
              <mxPoint x="676" y="250" />
            </Array>
            <mxPoint x="677" y="414" as="sourcePoint" />
          </mxGeometry>
        </mxCell>
        <mxCell id="RIxT3eAGtSI2uLzwE59G-22" value="" style="outlineConnect=0;dashed=0;verticalLabelPosition=bottom;verticalAlign=top;align=center;html=1;shape=mxgraph.aws3.lambda_function;fillColor=#F58534;gradientColor=none;" parent="1" vertex="1">
          <mxGeometry x="646" y="378" width="69" height="72" as="geometry" />
        </mxCell>
        <mxCell id="RIxT3eAGtSI2uLzwE59G-47" style="edgeStyle=orthogonalEdgeStyle;rounded=0;orthogonalLoop=1;jettySize=auto;html=1;" parent="1" source="RIxT3eAGtSI2uLzwE59G-24" target="RIxT3eAGtSI2uLzwE59G-26" edge="1">
          <mxGeometry relative="1" as="geometry" />
        </mxCell>
        <object label="" InitiateTransfer="" id="RIxT3eAGtSI2uLzwE59G-24">
          <mxCell style="sketch=0;points=[[0,0,0],[0.25,0,0],[0.5,0,0],[0.75,0,0],[1,0,0],[0,1,0],[0.25,1,0],[0.5,1,0],[0.75,1,0],[1,1,0],[0,0.25,0],[0,0.5,0],[0,0.75,0],[1,0.25,0],[1,0.5,0],[1,0.75,0]];outlineConnect=0;fontColor=#232F3E;fillColor=#E7157B;strokeColor=#ffffff;dashed=0;verticalLabelPosition=bottom;verticalAlign=top;align=center;html=1;fontSize=12;fontStyle=0;aspect=fixed;shape=mxgraph.aws4.resourceIcon;resIcon=mxgraph.aws4.step_functions;" parent="1" vertex="1">
            <mxGeometry x="730" y="197" width="78" height="78" as="geometry" />
          </mxCell>
        </object>
        <mxCell id="RIxT3eAGtSI2uLzwE59G-37" value="" style="edgeStyle=orthogonalEdgeStyle;rounded=0;orthogonalLoop=1;jettySize=auto;html=1;" parent="1" source="RIxT3eAGtSI2uLzwE59G-26" target="RIxT3eAGtSI2uLzwE59G-36" edge="1">
          <mxGeometry relative="1" as="geometry" />
        </mxCell>
        <mxCell id="RIxT3eAGtSI2uLzwE59G-26" value="" style="sketch=0;points=[[0,0,0],[0.25,0,0],[0.5,0,0],[0.75,0,0],[1,0,0],[0,1,0],[0.25,1,0],[0.5,1,0],[0.75,1,0],[1,1,0],[0,0.25,0],[0,0.5,0],[0,0.75,0],[1,0.25,0],[1,0.5,0],[1,0.75,0]];outlineConnect=0;fontColor=#232F3E;fillColor=#E7157B;strokeColor=#ffffff;dashed=0;verticalLabelPosition=bottom;verticalAlign=top;align=center;html=1;fontSize=12;fontStyle=0;aspect=fixed;shape=mxgraph.aws4.resourceIcon;resIcon=mxgraph.aws4.step_functions;" parent="1" vertex="1">
          <mxGeometry x="730" y="320" width="78" height="78" as="geometry" />
        </mxCell>
        <mxCell id="RIxT3eAGtSI2uLzwE59G-34" value="CheckBalance" style="text;strokeColor=none;align=center;fillColor=none;html=1;verticalAlign=middle;whiteSpace=wrap;rounded=0;" parent="1" vertex="1">
          <mxGeometry x="748" y="270" width="60" height="30" as="geometry" />
        </mxCell>
        <mxCell id="RIxT3eAGtSI2uLzwE59G-35" value="Processing Transfer" style="text;strokeColor=none;align=center;fillColor=none;html=1;verticalAlign=middle;whiteSpace=wrap;rounded=0;" parent="1" vertex="1">
          <mxGeometry x="748" y="410" width="60" height="30" as="geometry" />
        </mxCell>
        <mxCell id="RIxT3eAGtSI2uLzwE59G-39" value="" style="edgeStyle=orthogonalEdgeStyle;rounded=0;orthogonalLoop=1;jettySize=auto;html=1;" parent="1" source="RIxT3eAGtSI2uLzwE59G-36" target="RIxT3eAGtSI2uLzwE59G-38" edge="1">
          <mxGeometry relative="1" as="geometry" />
        </mxCell>
        <mxCell id="RIxT3eAGtSI2uLzwE59G-36" value="" style="sketch=0;points=[[0,0,0],[0.25,0,0],[0.5,0,0],[0.75,0,0],[1,0,0],[0,1,0],[0.25,1,0],[0.5,1,0],[0.75,1,0],[1,1,0],[0,0.25,0],[0,0.5,0],[0,0.75,0],[1,0.25,0],[1,0.5,0],[1,0.75,0]];outlineConnect=0;fontColor=#232F3E;fillColor=#E7157B;strokeColor=#ffffff;dashed=0;verticalLabelPosition=bottom;verticalAlign=top;align=center;html=1;fontSize=12;fontStyle=0;aspect=fixed;shape=mxgraph.aws4.resourceIcon;resIcon=mxgraph.aws4.sqs;" parent="1" vertex="1">
          <mxGeometry x="860" y="320" width="78" height="78" as="geometry" />
        </mxCell>
        <mxCell id="RIxT3eAGtSI2uLzwE59G-38" value="" style="outlineConnect=0;dashed=0;verticalLabelPosition=bottom;verticalAlign=top;align=center;html=1;shape=mxgraph.aws3.lambda_function;fillColor=#F58534;gradientColor=none;" parent="1" vertex="1">
          <mxGeometry x="1000" y="323" width="69" height="72" as="geometry" />
        </mxCell>
        <mxCell id="RIxT3eAGtSI2uLzwE59G-41" value="" style="edgeStyle=orthogonalEdgeStyle;rounded=0;orthogonalLoop=1;jettySize=auto;html=1;" parent="1" source="RIxT3eAGtSI2uLzwE59G-40" target="RIxT3eAGtSI2uLzwE59G-38" edge="1">
          <mxGeometry relative="1" as="geometry" />
        </mxCell>
        <mxCell id="RIxT3eAGtSI2uLzwE59G-40" value="" style="sketch=0;points=[[0,0,0],[0.25,0,0],[0.5,0,0],[0.75,0,0],[1,0,0],[0,1,0],[0.25,1,0],[0.5,1,0],[0.75,1,0],[1,1,0],[0,0.25,0],[0,0.5,0],[0,0.75,0],[1,0.25,0],[1,0.5,0],[1,0.75,0]];outlineConnect=0;fontColor=#232F3E;fillColor=#C925D1;strokeColor=#ffffff;dashed=0;verticalLabelPosition=bottom;verticalAlign=top;align=center;html=1;fontSize=12;fontStyle=0;aspect=fixed;shape=mxgraph.aws4.resourceIcon;resIcon=mxgraph.aws4.dynamodb;" parent="1" vertex="1">
          <mxGeometry x="995.5" y="430" width="78" height="78" as="geometry" />
        </mxCell>
        <mxCell id="RIxT3eAGtSI2uLzwE59G-42" value="" style="sketch=0;points=[[0,0,0],[0.25,0,0],[0.5,0,0],[0.75,0,0],[1,0,0],[0,1,0],[0.25,1,0],[0.5,1,0],[0.75,1,0],[1,1,0],[0,0.25,0],[0,0.5,0],[0,0.75,0],[1,0.25,0],[1,0.5,0],[1,0.75,0]];points=[[0,0,0],[0.25,0,0],[0.5,0,0],[0.75,0,0],[1,0,0],[0,1,0],[0.25,1,0],[0.5,1,0],[0.75,1,0],[1,1,0],[0,0.25,0],[0,0.5,0],[0,0.75,0],[1,0.25,0],[1,0.5,0],[1,0.75,0]];outlineConnect=0;fontColor=#232F3E;fillColor=#E7157B;strokeColor=#ffffff;dashed=0;verticalLabelPosition=bottom;verticalAlign=top;align=center;html=1;fontSize=12;fontStyle=0;aspect=fixed;shape=mxgraph.aws4.resourceIcon;resIcon=mxgraph.aws4.cloudwatch_2;" parent="1" vertex="1">
          <mxGeometry x="230" y="528" width="78" height="78" as="geometry" />
        </mxCell>
        <mxCell id="RIxT3eAGtSI2uLzwE59G-45" value="" style="sketch=0;points=[[0,0,0],[0.25,0,0],[0.5,0,0],[0.75,0,0],[1,0,0],[0,1,0],[0.25,1,0],[0.5,1,0],[0.75,1,0],[1,1,0],[0,0.25,0],[0,0.5,0],[0,0.75,0],[1,0.25,0],[1,0.5,0],[1,0.75,0]];points=[[0,0,0],[0.25,0,0],[0.5,0,0],[0.75,0,0],[1,0,0],[0,1,0],[0.25,1,0],[0.5,1,0],[0.75,1,0],[1,1,0],[0,0.25,0],[0,0.5,0],[0,0.75,0],[1,0.25,0],[1,0.5,0],[1,0.75,0]];outlineConnect=0;fontColor=#232F3E;fillColor=#E7157B;strokeColor=#ffffff;dashed=0;verticalLabelPosition=bottom;verticalAlign=top;align=center;html=1;fontSize=12;fontStyle=0;aspect=fixed;shape=mxgraph.aws4.resourceIcon;resIcon=mxgraph.aws4.cloudtrail;" parent="1" vertex="1">
          <mxGeometry x="330" y="530" width="78" height="78" as="geometry" />
        </mxCell>
        <mxCell id="RIxT3eAGtSI2uLzwE59G-46" value="" style="sketch=0;points=[[0,0,0],[0.25,0,0],[0.5,0,0],[0.75,0,0],[1,0,0],[0,1,0],[0.25,1,0],[0.5,1,0],[0.75,1,0],[1,1,0],[0,0.25,0],[0,0.5,0],[0,0.75,0],[1,0.25,0],[1,0.5,0],[1,0.75,0]];outlineConnect=0;fontColor=#232F3E;fillColor=#C925D1;strokeColor=#ffffff;dashed=0;verticalLabelPosition=bottom;verticalAlign=top;align=center;html=1;fontSize=12;fontStyle=0;aspect=fixed;shape=mxgraph.aws4.resourceIcon;resIcon=mxgraph.aws4.xray;" parent="1" vertex="1">
          <mxGeometry x="420" y="532" width="78" height="78" as="geometry" />
        </mxCell>
        <mxCell id="RIxT3eAGtSI2uLzwE59G-55" style="edgeStyle=orthogonalEdgeStyle;rounded=0;orthogonalLoop=1;jettySize=auto;html=1;entryX=0.855;entryY=0.855;entryDx=0;entryDy=0;entryPerimeter=0;" parent="1" source="RIxT3eAGtSI2uLzwE59G-38" target="RIxT3eAGtSI2uLzwE59G-48" edge="1">
          <mxGeometry relative="1" as="geometry">
            <Array as="points">
              <mxPoint x="1130" y="359" />
              <mxPoint x="1130" y="522" />
            </Array>
          </mxGeometry>
        </mxCell>
        <mxCell id="RIxT3eAGtSI2uLzwE59G-59" value="" style="edgeStyle=orthogonalEdgeStyle;rounded=0;orthogonalLoop=1;jettySize=auto;html=1;entryX=0.5;entryY=1;entryDx=0;entryDy=0;entryPerimeter=0;" parent="1" source="RIxT3eAGtSI2uLzwE59G-48" target="RIxT3eAGtSI2uLzwE59G-17" edge="1">
          <mxGeometry relative="1" as="geometry">
            <mxPoint x="680" y="511" as="targetPoint" />
            <Array as="points" />
          </mxGeometry>
        </mxCell>
        <mxCell id="RIxT3eAGtSI2uLzwE59G-48" value="" style="outlineConnect=0;dashed=0;verticalLabelPosition=bottom;verticalAlign=top;align=center;html=1;shape=mxgraph.aws3.lambda_function;fillColor=#F58534;gradientColor=none;" parent="1" vertex="1">
          <mxGeometry x="760" y="475" width="69" height="72" as="geometry" />
        </mxCell>
        <mxCell id="9CuErqTDi-yg6n9Q_Q30-1" value="AWS Cloud" style="sketch=0;outlineConnect=0;gradientColor=none;html=1;whiteSpace=wrap;fontSize=12;fontStyle=0;shape=mxgraph.aws4.group;grIcon=mxgraph.aws4.group_aws_cloud;strokeColor=#AAB7B8;fillColor=none;verticalAlign=top;align=left;spacingLeft=30;fontColor=#AAB7B8;dashed=0;" parent="1" vertex="1">
          <mxGeometry x="30" y="10" width="1470" height="120" as="geometry" />
        </mxCell>
        <mxCell id="9CuErqTDi-yg6n9Q_Q30-2" value="VPC" style="sketch=0;outlineConnect=0;gradientColor=none;html=1;whiteSpace=wrap;fontSize=12;fontStyle=0;shape=mxgraph.aws4.group;grIcon=mxgraph.aws4.group_vpc;strokeColor=#B6BABF;fillColor=none;verticalAlign=top;align=left;spacingLeft=30;fontColor=#B6BABF;dashed=0;" parent="1" vertex="1">
          <mxGeometry x="130" y="20" width="1360" height="100" as="geometry" />
        </mxCell>
        <mxCell id="9CuErqTDi-yg6n9Q_Q30-4" value="" style="sketch=0;points=[[0,0,0],[0.25,0,0],[0.5,0,0],[0.75,0,0],[1,0,0],[0,1,0],[0.25,1,0],[0.5,1,0],[0.75,1,0],[1,1,0],[0,0.25,0],[0,0.5,0],[0,0.75,0],[1,0.25,0],[1,0.5,0],[1,0.75,0]];outlineConnect=0;fontColor=#232F3E;fillColor=#C925D1;strokeColor=#ffffff;dashed=0;verticalLabelPosition=bottom;verticalAlign=top;align=center;html=1;fontSize=12;fontStyle=0;aspect=fixed;shape=mxgraph.aws4.resourceIcon;resIcon=mxgraph.aws4.dynamodb;" parent="1" vertex="1">
          <mxGeometry x="1073.5" y="20" width="78" height="78" as="geometry" />
        </mxCell>
        <mxCell id="9CuErqTDi-yg6n9Q_Q30-6" value="OPTIONS&lt;div&gt;GET&lt;/div&gt;&lt;div&gt;PUT&lt;/div&gt;&lt;div&gt;UPDATE&lt;/div&gt;&lt;div&gt;DELETE&lt;/div&gt;" style="whiteSpace=wrap;html=1;aspect=fixed;" parent="1" vertex="1">
          <mxGeometry x="447" y="379" width="80" height="80" as="geometry" />
        </mxCell>
      </root>
    </mxGraphModel>
  </diagram>
  <diagram id="dD-ZpUryIdJhwuQ11r5u" name="Page-2">
    <mxGraphModel dx="1189" dy="1726" grid="1" gridSize="10" guides="1" tooltips="1" connect="1" arrows="1" fold="1" page="1" pageScale="1" pageWidth="850" pageHeight="1100" math="0" shadow="0">
      <root>
        <mxCell id="0" />
        <mxCell id="1" parent="0" />
        <mxCell id="5-Qwvvyd5I_CoeeQKemV-1" value="ATM" style="rounded=0;whiteSpace=wrap;html=1;fillColor=#FFFF99;strokeColor=#000000;strokeWidth=1;" vertex="1" parent="1">
          <mxGeometry x="10" y="-50" width="100" height="60" as="geometry" />
        </mxCell>
        <mxCell id="5-Qwvvyd5I_CoeeQKemV-2" value="ATM Network" style="rounded=0;whiteSpace=wrap;html=1;fillColor=#99CCFF;strokeColor=#000000;strokeWidth=1;" vertex="1" parent="1">
          <mxGeometry x="10" y="60" width="100" height="60" as="geometry" />
        </mxCell>
        <mxCell id="5-Qwvvyd5I_CoeeQKemV-3" value="API Gateway" style="rounded=0;whiteSpace=wrap;html=1;fillColor=#FFCC99;strokeColor=#000000;strokeWidth=1;" vertex="1" parent="1">
          <mxGeometry x="10" y="210" width="100" height="60" as="geometry" />
        </mxCell>
        <mxCell id="5-Qwvvyd5I_CoeeQKemV-4" value="Authentication Service" style="rounded=0;whiteSpace=wrap;html=1;fillColor=#99FF99;strokeColor=#000000;strokeWidth=1;" vertex="1" parent="1">
          <mxGeometry x="10" y="320" width="100" height="60" as="geometry" />
        </mxCell>
        <mxCell id="5-Qwvvyd5I_CoeeQKemV-5" value="CRUD Lambda Functions" style="rounded=0;whiteSpace=wrap;html=1;fillColor=#FF99CC;strokeColor=#000000;strokeWidth=1;" vertex="1" parent="1">
          <mxGeometry x="270" y="120" width="100" height="60" as="geometry" />
        </mxCell>
        <mxCell id="5-Qwvvyd5I_CoeeQKemV-6" value="Core Banking System (Create)" style="rounded=0;whiteSpace=wrap;html=1;fillColor=#FF9999;strokeColor=#000000;strokeWidth=1;" vertex="1" parent="1">
          <mxGeometry x="510" y="10" width="160" height="60" as="geometry" />
        </mxCell>
        <mxCell id="5-Qwvvyd5I_CoeeQKemV-7" value="Core Banking System (Read)" style="rounded=0;whiteSpace=wrap;html=1;fillColor=#FF9999;strokeColor=#000000;strokeWidth=1;" vertex="1" parent="1">
          <mxGeometry x="510" y="110" width="160" height="60" as="geometry" />
        </mxCell>
        <mxCell id="5-Qwvvyd5I_CoeeQKemV-8" value="Core Banking System (Update)" style="rounded=0;whiteSpace=wrap;html=1;fillColor=#FF9999;strokeColor=#000000;strokeWidth=1;" vertex="1" parent="1">
          <mxGeometry x="510" y="200" width="160" height="60" as="geometry" />
        </mxCell>
        <mxCell id="5-Qwvvyd5I_CoeeQKemV-9" value="Database" style="rounded=0;whiteSpace=wrap;html=1;fillColor=#9999FF;strokeColor=#000000;strokeWidth=1;" vertex="1" parent="1">
          <mxGeometry x="740" y="110" width="100" height="60" as="geometry" />
        </mxCell>
        <mxCell id="5-Qwvvyd5I_CoeeQKemV-10" value="Monitoring &amp; Logging" style="rounded=0;whiteSpace=wrap;html=1;fillColor=#CCCCFF;strokeColor=#000000;strokeWidth=1;" vertex="1" parent="1">
          <mxGeometry x="660" y="310" width="120" height="60" as="geometry" />
        </mxCell>
        <mxCell id="5-Qwvvyd5I_CoeeQKemV-11" style="rounded=0;orthogonal=0;exitX=0.5;exitY=1;entryX=0.5;entryY=0;" edge="1" parent="1" source="5-Qwvvyd5I_CoeeQKemV-1" target="5-Qwvvyd5I_CoeeQKemV-2">
          <mxGeometry relative="1" as="geometry" />
        </mxCell>
        <mxCell id="5-Qwvvyd5I_CoeeQKemV-12" style="rounded=0;orthogonal=0;exitX=0.5;exitY=1;entryX=0.5;entryY=0;" edge="1" parent="1" source="5-Qwvvyd5I_CoeeQKemV-2" target="5-Qwvvyd5I_CoeeQKemV-3">
          <mxGeometry relative="1" as="geometry" />
        </mxCell>
        <mxCell id="5-Qwvvyd5I_CoeeQKemV-13" style="edgeStyle=elbowEdgeStyle;rounded=0;orthogonal=0;exitX=0.5;exitY=1;entryX=0.5;entryY=0;" edge="1" parent="1" source="5-Qwvvyd5I_CoeeQKemV-3" target="5-Qwvvyd5I_CoeeQKemV-4">
          <mxGeometry relative="1" as="geometry" />
        </mxCell>
        <mxCell id="5-Qwvvyd5I_CoeeQKemV-14" style="rounded=0;orthogonal=0;exitX=1;exitY=0.5;exitDx=0;exitDy=0;" edge="1" parent="1" source="5-Qwvvyd5I_CoeeQKemV-3">
          <mxGeometry relative="1" as="geometry">
            <mxPoint x="270" y="239" as="sourcePoint" />
            <mxPoint x="270" y="160" as="targetPoint" />
          </mxGeometry>
        </mxCell>
        <mxCell id="5-Qwvvyd5I_CoeeQKemV-15" style="edgeStyle=elbowEdgeStyle;rounded=0;orthogonal=0;entryX=0;entryY=0.5;entryDx=0;entryDy=0;" edge="1" parent="1" target="5-Qwvvyd5I_CoeeQKemV-6">
          <mxGeometry relative="1" as="geometry">
            <mxPoint x="370" y="150" as="sourcePoint" />
          </mxGeometry>
        </mxCell>
        <mxCell id="5-Qwvvyd5I_CoeeQKemV-16" style="edgeStyle=elbowEdgeStyle;rounded=0;orthogonal=0;entryX=-0.022;entryY=0.621;entryDx=0;entryDy=0;entryPerimeter=0;" edge="1" parent="1" target="5-Qwvvyd5I_CoeeQKemV-7">
          <mxGeometry relative="1" as="geometry">
            <mxPoint x="380" y="150" as="sourcePoint" />
            <Array as="points">
              <mxPoint x="480" y="130" />
            </Array>
          </mxGeometry>
        </mxCell>
        <mxCell id="5-Qwvvyd5I_CoeeQKemV-17" style="edgeStyle=elbowEdgeStyle;rounded=0;orthogonal=0;exitX=1;exitY=0.5;entryX=0;entryY=0.75;exitDx=0;exitDy=0;entryDx=0;entryDy=0;" edge="1" parent="1" source="5-Qwvvyd5I_CoeeQKemV-5" target="5-Qwvvyd5I_CoeeQKemV-8">
          <mxGeometry relative="1" as="geometry" />
        </mxCell>
        <mxCell id="5-Qwvvyd5I_CoeeQKemV-18" style="edgeStyle=elbowEdgeStyle;rounded=0;orthogonal=0;exitX=1;exitY=0.5;entryX=0;entryY=0.5;" edge="1" parent="1" source="5-Qwvvyd5I_CoeeQKemV-6" target="5-Qwvvyd5I_CoeeQKemV-9">
          <mxGeometry relative="1" as="geometry" />
        </mxCell>
        <mxCell id="5-Qwvvyd5I_CoeeQKemV-19" style="edgeStyle=elbowEdgeStyle;rounded=0;orthogonal=0;exitX=1;exitY=0.5;entryX=0;entryY=0.5;" edge="1" parent="1" source="5-Qwvvyd5I_CoeeQKemV-7" target="5-Qwvvyd5I_CoeeQKemV-9">
          <mxGeometry relative="1" as="geometry" />
        </mxCell>
        <mxCell id="5-Qwvvyd5I_CoeeQKemV-20" style="edgeStyle=elbowEdgeStyle;rounded=0;orthogonal=0;exitX=1;exitY=0.5;entryX=0;entryY=0.5;" edge="1" parent="1" source="5-Qwvvyd5I_CoeeQKemV-8" target="5-Qwvvyd5I_CoeeQKemV-9">
          <mxGeometry relative="1" as="geometry" />
        </mxCell>
        <mxCell id="5-Qwvvyd5I_CoeeQKemV-21" style="edgeStyle=elbowEdgeStyle;rounded=0;orthogonal=0;" edge="1" parent="1">
          <mxGeometry relative="1" as="geometry">
            <mxPoint x="700" y="230" as="sourcePoint" />
            <mxPoint x="710" y="310" as="targetPoint" />
            <Array as="points">
              <mxPoint x="710" y="340" />
              <mxPoint x="740" y="200" />
            </Array>
          </mxGeometry>
        </mxCell>
        <mxCell id="5-Qwvvyd5I_CoeeQKemV-23" value="Actor" style="shape=umlActor;verticalLabelPosition=bottom;verticalAlign=top;html=1;outlineConnect=0;" vertex="1" parent="1">
          <mxGeometry x="50" y="-160" width="30" height="60" as="geometry" />
        </mxCell>
      </root>
    </mxGraphModel>
  </diagram>
  <diagram id="pOyaQPhugttpA-JPHbgP" name="Page-3">
    <mxGraphModel dx="1189" dy="626" grid="1" gridSize="10" guides="1" tooltips="1" connect="1" arrows="1" fold="1" page="1" pageScale="1" pageWidth="850" pageHeight="1100" math="0" shadow="0">
      <root>
        <mxCell id="0" />
        <mxCell id="1" parent="0" />
        <mxCell id="GXlhgbfJ43RiwrY7pvdW-1" value="Actor" style="shape=umlActor;verticalLabelPosition=bottom;verticalAlign=top;html=1;outlineConnect=0;" vertex="1" parent="1">
          <mxGeometry x="130" y="60" width="30" height="60" as="geometry" />
        </mxCell>
        <mxCell id="ZOMOESC-ADS7He69_-06-5" value="" style="edgeStyle=orthogonalEdgeStyle;rounded=0;orthogonalLoop=1;jettySize=auto;html=1;" edge="1" parent="1" source="GXlhgbfJ43RiwrY7pvdW-2" target="GXlhgbfJ43RiwrY7pvdW-1">
          <mxGeometry relative="1" as="geometry" />
        </mxCell>
        <object label="ATM" ATM="" id="GXlhgbfJ43RiwrY7pvdW-2">
          <mxCell style="whiteSpace=wrap;html=1;aspect=fixed;" vertex="1" parent="1">
            <mxGeometry x="105" y="190" width="80" height="80" as="geometry" />
          </mxCell>
        </object>
        <mxCell id="ZOMOESC-ADS7He69_-06-4" value="" style="edgeStyle=orthogonalEdgeStyle;rounded=0;orthogonalLoop=1;jettySize=auto;html=1;" edge="1" parent="1" source="GXlhgbfJ43RiwrY7pvdW-3" target="GXlhgbfJ43RiwrY7pvdW-2">
          <mxGeometry relative="1" as="geometry" />
        </mxCell>
        <mxCell id="GXlhgbfJ43RiwrY7pvdW-3" value="ATM Network" style="whiteSpace=wrap;html=1;aspect=fixed;" vertex="1" parent="1">
          <mxGeometry x="105" y="320" width="80" height="80" as="geometry" />
        </mxCell>
        <mxCell id="ZOMOESC-ADS7He69_-06-3" value="" style="edgeStyle=orthogonalEdgeStyle;rounded=0;orthogonalLoop=1;jettySize=auto;html=1;" edge="1" parent="1" source="9NwiIpO-jtRIEH712YyS-1" target="GXlhgbfJ43RiwrY7pvdW-3">
          <mxGeometry relative="1" as="geometry" />
        </mxCell>
        <mxCell id="8WxQhXVeCiUC1WaFwOS5-6" value="" style="edgeStyle=orthogonalEdgeStyle;rounded=0;orthogonalLoop=1;jettySize=auto;html=1;" edge="1" parent="1" source="9NwiIpO-jtRIEH712YyS-1" target="8WxQhXVeCiUC1WaFwOS5-5">
          <mxGeometry relative="1" as="geometry" />
        </mxCell>
        <mxCell id="9NwiIpO-jtRIEH712YyS-1" value="APIGateway&lt;div&gt;&lt;br&gt;&lt;/div&gt;" style="sketch=0;points=[[0,0,0],[0.25,0,0],[0.5,0,0],[0.75,0,0],[1,0,0],[0,1,0],[0.25,1,0],[0.5,1,0],[0.75,1,0],[1,1,0],[0,0.25,0],[0,0.5,0],[0,0.75,0],[1,0.25,0],[1,0.5,0],[1,0.75,0]];outlineConnect=0;fontColor=#232F3E;fillColor=#E7157B;strokeColor=#ffffff;dashed=0;verticalLabelPosition=bottom;verticalAlign=top;align=center;html=1;fontSize=12;fontStyle=0;aspect=fixed;shape=mxgraph.aws4.resourceIcon;resIcon=mxgraph.aws4.api_gateway;" vertex="1" parent="1">
          <mxGeometry x="106" y="460" width="78" height="78" as="geometry" />
        </mxCell>
        <mxCell id="ZOMOESC-ADS7He69_-06-2" value="" style="edgeStyle=orthogonalEdgeStyle;rounded=0;orthogonalLoop=1;jettySize=auto;html=1;" edge="1" parent="1" source="ZOMOESC-ADS7He69_-06-1" target="9NwiIpO-jtRIEH712YyS-1">
          <mxGeometry relative="1" as="geometry" />
        </mxCell>
        <mxCell id="ZOMOESC-ADS7He69_-06-1" value="Cognito" style="outlineConnect=0;dashed=0;verticalLabelPosition=bottom;verticalAlign=top;align=center;html=1;shape=mxgraph.aws3.cognito;fillColor=#AD688B;gradientColor=none;" vertex="1" parent="1">
          <mxGeometry x="106" y="590" width="76.5" height="93" as="geometry" />
        </mxCell>
        <mxCell id="8WxQhXVeCiUC1WaFwOS5-13" value="" style="rounded=0;orthogonalLoop=1;jettySize=auto;html=1;" edge="1" parent="1" source="saj8xrMe1BgxhJuh7yGg-1" target="8WxQhXVeCiUC1WaFwOS5-12">
          <mxGeometry relative="1" as="geometry" />
        </mxCell>
        <mxCell id="saj8xrMe1BgxhJuh7yGg-1" value="&lt;div&gt;&lt;br&gt;&lt;/div&gt;&lt;div&gt;&lt;br&gt;&lt;/div&gt;&lt;div&gt;&lt;br&gt;&lt;/div&gt;&lt;div&gt;&lt;br&gt;&lt;/div&gt;&lt;div&gt;&lt;br&gt;&lt;/div&gt;&lt;div&gt;&lt;br&gt;&lt;/div&gt;&lt;div&gt;&lt;br&gt;&lt;/div&gt;&lt;div&gt;&lt;br&gt;&lt;/div&gt;&lt;div&gt;&lt;br&gt;&lt;/div&gt;&lt;div&gt;&lt;br&gt;&lt;/div&gt;&lt;div&gt;&lt;br&gt;&lt;/div&gt;&lt;div&gt;&lt;br&gt;&lt;/div&gt;&lt;div&gt;&lt;br&gt;&lt;/div&gt;&lt;div&gt;&lt;br&gt;&lt;/div&gt;&lt;div&gt;&lt;br&gt;&lt;/div&gt;&lt;div&gt;&lt;br&gt;&lt;/div&gt;&lt;div&gt;&lt;br&gt;&lt;/div&gt;&lt;div&gt;&lt;br&gt;&lt;/div&gt;&lt;div&gt;&lt;br&gt;&lt;/div&gt;&lt;div&gt;&lt;br&gt;&lt;/div&gt;&lt;div&gt;&lt;br&gt;&lt;/div&gt;&lt;div&gt;&lt;br&gt;&lt;/div&gt;&lt;div&gt;&lt;br&gt;&lt;/div&gt;&lt;div&gt;&lt;br&gt;&lt;/div&gt;&lt;div&gt;&lt;br&gt;&lt;/div&gt;&lt;b&gt;CRUD Lambda Functions&lt;/b&gt;" style="rounded=0;whiteSpace=wrap;html=1;fillColor=#FF99CC;strokeColor=#000000;strokeWidth=1;" vertex="1" parent="1">
          <mxGeometry x="480" y="284" width="160" height="440" as="geometry" />
        </mxCell>
        <mxCell id="8WxQhXVeCiUC1WaFwOS5-1" value="" style="outlineConnect=0;dashed=0;verticalLabelPosition=bottom;verticalAlign=top;align=center;html=1;shape=mxgraph.aws3.lambda_function;fillColor=#F58534;gradientColor=none;" vertex="1" parent="1">
          <mxGeometry x="520" y="360" width="69" height="72" as="geometry" />
        </mxCell>
        <mxCell id="8WxQhXVeCiUC1WaFwOS5-2" value="" style="outlineConnect=0;dashed=0;verticalLabelPosition=bottom;verticalAlign=top;align=center;html=1;shape=mxgraph.aws3.lambda_function;fillColor=#F58534;gradientColor=none;" vertex="1" parent="1">
          <mxGeometry x="525.5" y="463" width="69" height="72" as="geometry" />
        </mxCell>
        <mxCell id="8WxQhXVeCiUC1WaFwOS5-3" value="" style="outlineConnect=0;dashed=0;verticalLabelPosition=bottom;verticalAlign=top;align=center;html=1;shape=mxgraph.aws3.lambda_function;fillColor=#F58534;gradientColor=none;" vertex="1" parent="1">
          <mxGeometry x="530" y="570" width="69" height="72" as="geometry" />
        </mxCell>
        <mxCell id="8WxQhXVeCiUC1WaFwOS5-9" value="" style="edgeStyle=orthogonalEdgeStyle;rounded=0;orthogonalLoop=1;jettySize=auto;html=1;" edge="1" parent="1" source="8WxQhXVeCiUC1WaFwOS5-4" target="8WxQhXVeCiUC1WaFwOS5-2">
          <mxGeometry relative="1" as="geometry" />
        </mxCell>
        <mxCell id="8WxQhXVeCiUC1WaFwOS5-11" style="edgeStyle=orthogonalEdgeStyle;rounded=0;orthogonalLoop=1;jettySize=auto;html=1;entryX=0;entryY=0.75;entryDx=0;entryDy=0;" edge="1" parent="1" source="8WxQhXVeCiUC1WaFwOS5-4" target="saj8xrMe1BgxhJuh7yGg-1">
          <mxGeometry relative="1" as="geometry">
            <mxPoint x="420" y="620" as="targetPoint" />
            <Array as="points">
              <mxPoint x="410" y="614" />
            </Array>
          </mxGeometry>
        </mxCell>
        <mxCell id="8WxQhXVeCiUC1WaFwOS5-4" value="" style="outlineConnect=0;dashed=0;verticalLabelPosition=bottom;verticalAlign=top;align=center;html=1;shape=mxgraph.aws3.lambda_function;fillColor=#F58534;gradientColor=none;" vertex="1" parent="1">
          <mxGeometry x="370" y="463" width="69" height="72" as="geometry" />
        </mxCell>
        <mxCell id="8WxQhXVeCiUC1WaFwOS5-7" value="" style="edgeStyle=orthogonalEdgeStyle;rounded=0;orthogonalLoop=1;jettySize=auto;html=1;" edge="1" parent="1" source="8WxQhXVeCiUC1WaFwOS5-5" target="8WxQhXVeCiUC1WaFwOS5-4">
          <mxGeometry relative="1" as="geometry" />
        </mxCell>
        <mxCell id="8WxQhXVeCiUC1WaFwOS5-5" value="SQS FIFO" style="sketch=0;points=[[0,0,0],[0.25,0,0],[0.5,0,0],[0.75,0,0],[1,0,0],[0,1,0],[0.25,1,0],[0.5,1,0],[0.75,1,0],[1,1,0],[0,0.25,0],[0,0.5,0],[0,0.75,0],[1,0.25,0],[1,0.5,0],[1,0.75,0]];outlineConnect=0;fontColor=#232F3E;fillColor=#E7157B;strokeColor=#ffffff;dashed=0;verticalLabelPosition=bottom;verticalAlign=top;align=center;html=1;fontSize=12;fontStyle=0;aspect=fixed;shape=mxgraph.aws4.resourceIcon;resIcon=mxgraph.aws4.sqs;" vertex="1" parent="1">
          <mxGeometry x="250" y="460" width="78" height="78" as="geometry" />
        </mxCell>
        <mxCell id="8WxQhXVeCiUC1WaFwOS5-10" style="edgeStyle=orthogonalEdgeStyle;rounded=0;orthogonalLoop=1;jettySize=auto;html=1;entryX=0;entryY=0.5;entryDx=0;entryDy=0;entryPerimeter=0;" edge="1" parent="1" source="8WxQhXVeCiUC1WaFwOS5-4" target="8WxQhXVeCiUC1WaFwOS5-1">
          <mxGeometry relative="1" as="geometry">
            <Array as="points">
              <mxPoint x="405" y="396" />
            </Array>
          </mxGeometry>
        </mxCell>
        <mxCell id="8WxQhXVeCiUC1WaFwOS5-12" value="&lt;b&gt;Dynamo DB&lt;/b&gt;&lt;div&gt;&lt;br&gt;&lt;/div&gt;" style="outlineConnect=0;dashed=0;verticalLabelPosition=bottom;verticalAlign=top;align=center;html=1;shape=mxgraph.aws3.dynamo_db;fillColor=#2E73B8;gradientColor=none;" vertex="1" parent="1">
          <mxGeometry x="730" y="463.5" width="72" height="81" as="geometry" />
        </mxCell>
      </root>
    </mxGraphModel>
  </diagram>
</mxfile>
